<svg xmlns="http://www.w3.org/2000/svg" viewBox="0 0 512 512"><title>logo_v2</title><path d="M256,496A240,240,0,0,1,86.29,86.29,240,240,0,0,1,425.71,425.71,238.43,238.43,0,0,1,256,496Z" transform="translate(-0.02 -0.02)" style="fill:#dcdce0"/><path d="M193,168l35.5.22V284q0,26.46-15,41.26t-42.09,14.79q-26.34,0-40.47-11.43t-18.82-36.92l35.24-5.17q2.16,13.11,8,19.42t16.24,6.32q10.57,0,16.06-7.1t5.47-20.32L193,168" transform="translate(-0.02 -0.02)" style="fill:#1e2022"/><path d="M400,292.83q0,24.89-18.46,38.06t-54.18,13.17q-32.59,0-51.12-11.55t-23.81-35l34.28-5.66q3.48,13.47,13.59,19.55t28,6.07q37.17,0,37.16-22.61A17,17,0,0,0,361.19,283a32.22,32.22,0,0,0-12-7.81q-7.76-3.13-29.77-7.58-19-4.45-26.46-7.16A74.28,74.28,0,0,1,279.47,254a39.6,39.6,0,0,1-10.22-8.84,38.54,38.54,0,0,1-6.56-12.15,50.21,50.21,0,0,1-2.34-16q0-23,17.26-35.18t50.21-12.21q31.51,0,47.33,9.86t20.38,32.59l-34.4,4.7q-2.64-10.95-10.76-16.48t-23.27-5.53q-32.24,0-32.23,20.2a16.64,16.64,0,0,0,3.42,10.83A26.51,26.51,0,0,0,308.46,233q6.74,3,27.3,7.4,24.4,5.18,34.94,9.56t16.65,10.22a38.91,38.91,0,0,1,9.38,13.95A50,50,0,0,1,400,292.83Z" transform="translate(-0.02 -0.02)" style="fill:#1e2022"/><circle cx="191.98" cy="47.98" r="16" style="fill:#b5b6be"/><circle cx="255.98" cy="47.98" r="16" style="fill:#b5b6be"/><circle cx="319.98" cy="47.98" r="16" style="fill:#b5b6be"/><circle cx="287.98" cy="79.98" r="16" style="fill:#b5b6be"/><circle cx="223.98" cy="79.98" r="16" style="fill:#b5b6be"/><circle cx="159.98" cy="79.98" r="16" style="fill:#b5b6be"/><circle cx="351.98" cy="79.98" r="16" style="fill:#b5b6be"/><circle cx="415.98" cy="79.98" r="16" style="fill:#b5b6be"/><circle cx="95.98" cy="79.98" r="16" style="fill:#b5b6be"/><circle cx="191.98" cy="111.98" r="16" style="fill:#b5b6be"/><circle cx="255.98" cy="111.98" r="16" style="fill:#b5b6be"/><circle cx="319.98" cy="111.98" r="16" style="fill:#b5b6be"/><circle cx="383.98" cy="111.98" r="16" style="fill:#b5b6be"/><circle cx="127.98" cy="111.98" r="16" style="fill:#b5b6be"/><circle cx="415.98" cy="143.98" r="16" style="fill:#b5b6be"/><circle cx="95.98" cy="143.98" r="16" style="fill:#b5b6be"/><circle cx="447.98" cy="175.98" r="16" style="fill:#b5b6be"/><circle cx="63.98" cy="175.98" r="16" style="fill:#b5b6be"/><circle cx="479.98" cy="207.98" r="16" style="fill:#b5b6be"/><circle cx="31.98" cy="207.98" r="16" style="fill:#b5b6be"/><circle cx="479.98" cy="255.98" r="16" style="fill:#b5b6be"/><circle cx="479.98" cy="303.98" r="16" style="fill:#b5b6be"/><circle cx="31.98" cy="255.98" r="16" style="fill:#b5b6be"/><circle cx="31.98" cy="303.98" r="16" style="fill:#b5b6be"/><circle cx="319.98" cy="463.98" r="16" style="fill:#b5b6be"/><circle cx="255.98" cy="463.98" r="16" style="fill:#b5b6be"/><circle cx="191.98" cy="463.98" r="16" style="fill:#b5b6be"/><circle cx="223.98" cy="431.98" r="16" style="fill:#b5b6be"/><circle cx="287.98" cy="431.98" r="16" style="fill:#b5b6be"/><circle cx="351.98" cy="431.98" r="16" style="fill:#b5b6be"/><circle cx="159.98" cy="431.98" r="16" style="fill:#b5b6be"/><circle cx="95.98" cy="431.98" r="16" style="fill:#b5b6be"/><circle cx="415.98" cy="431.98" r="16" style="fill:#b5b6be"/><circle cx="319.98" cy="399.98" r="16" style="fill:#b5b6be"/><circle cx="255.98" cy="399.98" r="16" style="fill:#b5b6be"/><circle cx="191.98" cy="399.98" r="16" style="fill:#b5b6be"/><circle cx="127.98" cy="399.98" r="16" style="fill:#b5b6be"/><circle cx="383.98" cy="399.98" r="16" style="fill:#b5b6be"/><circle cx="95.98" cy="367.98" r="16" style="fill:#b5b6be"/><circle cx="415.98" cy="367.98" r="16" style="fill:#b5b6be"/><circle cx="63.98" cy="335.98" r="16" style="fill:#b5b6be"/><circle cx="447.98" cy="335.98" r="16" style="fill:#b5b6be"/><path d="M256,32A224.07,224.07,0,0,1,343.2,462.43,224.07,224.07,0,0,1,168.84,49.61,222.59,222.59,0,0,1,256,32m0-32C114.63,0,0,114.64,0,256S114.63,512,256,512,512,397.4,512,256,397.4,0,256,0Z" transform="translate(-0.02 -0.02)" style="fill:#7d808b"/></svg>