<svg xmlns="http://www.w3.org/2000/svg" viewBox="0 0 512 512"><line x1="256" y1="432" x2="256" y2="496" style="fill:#fff"/><rect x="240" y="432" width="32" height="64" style="fill:gray"/><circle cx="256" cy="224" r="208" style="fill:#f0f0f0"/><path d="M173,311.87q-26.16,0-40.19-11.35t-18.69-36.66l35-5.14q2.15,13,8,19.29t16.13,6.27q10.5,0,15.94-7t5.43-20.18V168.79H161V141.2h68.68v115q0,26.28-14.93,41T173,311.87Z"/><path d="M400,261q0,24.72-18.33,37.8t-53.81,13.08q-32.37,0-50.76-11.47t-23.64-34.75l34-5.62Q291,273.41,301,279.44t27.83,6q36.9,0,36.9-22.45a16.85,16.85,0,0,0-4.24-11.82,31.89,31.89,0,0,0-11.94-7.77q-7.71-3.1-29.56-7.52-18.87-4.42-26.28-7.11a74.18,74.18,0,0,1-13.37-6.33,39.07,39.07,0,0,1-10.15-8.78,38,38,0,0,1-6.51-12.06,49.56,49.56,0,0,1-2.33-15.88q0-22.81,17.14-34.94t49.86-12.12q31.29,0,47,9.79t20.24,32.37l-34.16,4.66q-2.62-10.87-10.69-16.36t-23.11-5.5q-32,0-32,20.07a16.48,16.48,0,0,0,3.4,10.75,26.37,26.37,0,0,0,10.09,7.1q6.69,2.93,27.11,7.35,24.25,5.13,34.7,9.49t16.54,10.15a38.76,38.76,0,0,1,9.32,13.86A49.69,49.69,0,0,1,400,261Z"/><circle cx="192" cy="96" r="16" style="fill:gray"/><circle cx="224" cy="64" r="16" style="fill:gray"/><circle cx="256" cy="96" r="16" style="fill:gray"/><circle cx="288" cy="64" r="16" style="fill:gray"/><circle cx="320" cy="96" r="16" style="fill:gray"/><circle cx="352" cy="64" r="16" style="fill:gray"/><circle cx="160" cy="64" r="16" style="fill:gray"/><circle cx="128" cy="96" r="16" style="fill:gray"/><circle cx="384" cy="96" r="16" style="fill:gray"/><circle cx="96" cy="128" r="16" style="fill:gray"/><circle cx="416" cy="128" r="16" style="fill:gray"/><circle cx="192" cy="32" r="16" style="fill:gray"/><circle cx="256" cy="32" r="16" style="fill:gray"/><circle cx="320" cy="32" r="16" style="fill:gray"/><circle cx="320" cy="352" r="16" style="fill:gray"/><circle cx="288" cy="384" r="16" style="fill:gray"/><circle cx="256" cy="352" r="16" style="fill:gray"/><circle cx="224" cy="384" r="16" style="fill:gray"/><circle cx="192" cy="352" r="16" style="fill:gray"/><circle cx="160" cy="384" r="16" style="fill:gray"/><circle cx="352" cy="384" r="16" style="fill:gray"/><circle cx="384" cy="352" r="16" style="fill:gray"/><circle cx="128" cy="352" r="16" style="fill:gray"/><circle cx="416" cy="320" r="16" style="fill:gray"/><circle cx="96" cy="320" r="16" style="fill:gray"/><circle cx="320" cy="416" r="16" style="fill:gray"/><circle cx="256" cy="416" r="16" style="fill:gray"/><circle cx="192" cy="416" r="16" style="fill:gray"/><circle cx="64" cy="288" r="16" style="fill:gray"/><circle cx="448" cy="288" r="16" style="fill:gray"/><circle cx="64" cy="160" r="16" style="fill:gray"/><circle cx="448" cy="160" r="16" style="fill:gray"/><path d="M256,32A192,192,0,0,1,391.76,359.76,192,192,0,1,1,120.24,88.24,190.7,190.7,0,0,1,256,32m0-32C132.29,0,32,100.29,32,224S132.29,448,256,448,480,347.71,480,224,379.71,0,256,0Z" style="fill:#404040"/><line y1="496" x2="512" y2="496" style="fill:#fff"/><rect y="480" width="512" height="32" style="fill:#008000"/></svg>
