<svg xmlns="http://www.w3.org/2000/svg" width="16" height="16" viewBox="0 0 16 16"><path d="M5.36,9.76a.69.69,0,0,1-.51-.2A1.19,1.19,0,0,1,4.6,9l-1.1.17a1.84,1.84,0,0,0,.59,1.15,2,2,0,0,0,1.26.36,1.79,1.79,0,0,0,1.32-.47,1.71,1.71,0,0,0,.47-1.29V5.26H6V8.9a1,1,0,0,1-.17.64A.61.61,0,0,1,5.36,9.76Z" transform="translate(0)"/><path d="M10.23,10.75a2.93,2.93,0,0,0,1.69-.41,1.35,1.35,0,0,0,.58-1.19,1.47,1.47,0,0,0-.1-.58,1.23,1.23,0,0,0-.3-.44,1.6,1.6,0,0,0-.52-.32,7.13,7.13,0,0,0-1.09-.3,5.2,5.2,0,0,1-.85-.23.9.9,0,0,1-.32-.22.53.53,0,0,1-.11-.34c0-.42.34-.63,1-.63a1.25,1.25,0,0,1,.73.17.82.82,0,0,1,.33.51l1.08-.14a1.49,1.49,0,0,0-.64-1,2.79,2.79,0,0,0-1.48-.31,2.76,2.76,0,0,0-1.57.38,1.29,1.29,0,0,0-.53,1.1,1.51,1.51,0,0,0,.07.5,1.37,1.37,0,0,0,.2.38,1.43,1.43,0,0,0,.32.28,4.09,4.09,0,0,0,.42.2c.16,0,.43.13.83.22a5.25,5.25,0,0,1,.93.24,1,1,0,0,1,.38.24.52.52,0,0,1,.13.37c0,.48-.39.71-1.16.71a1.69,1.69,0,0,1-.88-.19A1,1,0,0,1,9,9.12L7.89,9.3a1.66,1.66,0,0,0,.74,1.09A3,3,0,0,0,10.23,10.75Z" transform="translate(0)"/><circle cx="9" cy="2.5" r="0.5"/><circle cx="7" cy="2.5" r="0.5"/><circle cx="5" cy="2.5" r="0.5"/><circle cx="11" cy="2.5" r="0.5"/><circle cx="6" cy="3.5" r="0.5"/><circle cx="8" cy="3.5" r="0.5"/><circle cx="10" cy="3.5" r="0.5"/><circle cx="12" cy="3.5" r="0.5"/><circle cx="4" cy="3.5" r="0.5"/><circle cx="13" cy="4.5" r="0.5"/><circle cx="3" cy="4.5" r="0.5"/><circle cx="14" cy="5.5" r="0.5"/><circle cx="2" cy="5.5" r="0.5"/><circle cx="8" cy="14.5" r="0.5"/><circle cx="7" cy="13.5" r="0.5"/><circle cx="9" cy="13.5" r="0.5"/><circle cx="11" cy="13.5" r="0.5"/><circle cx="5" cy="13.5" r="0.5"/><circle cx="10" cy="12.5" r="0.5"/><circle cx="8" cy="12.5" r="0.5"/><circle cx="6" cy="12.5" r="0.5"/><circle cx="4" cy="12.5" r="0.5"/><circle cx="12" cy="12.5" r="0.5"/><circle cx="3" cy="11.5" r="0.5"/><circle cx="13" cy="11.5" r="0.5"/><circle cx="2" cy="10.5" r="0.5"/><circle cx="14" cy="10.5" r="0.5"/><path d="M8,0a8,8,0,1,0,8,8A8,8,0,0,0,8,0ZM13,13l-.07.06a.5.5,0,0,0-.35.33,7.16,7.16,0,0,1-1.81,1.11l-.22.09v0a.5.5,0,0,0-1,0,.47.47,0,0,0,.11.31,6.92,6.92,0,0,1-3.22,0,.47.47,0,0,0,.11-.31.5.5,0,0,0-1,0v0l-.22-.09a7,7,0,0,1-1.81-1.11A.5.5,0,0,0,3.12,13L3.05,13a6.9,6.9,0,0,1-1.5-2.23,5.84,5.84,0,0,1-.28-.8A.5.5,0,0,0,1.07,9c0-.17,0-.34-.05-.51a.5.5,0,0,0,0-1c0-.17,0-.34.05-.51a.5.5,0,0,0,.2-.91,5.84,5.84,0,0,1,.28-.8,6.9,6.9,0,0,1,1.5-2.23L3.12,3a.49.49,0,0,0,.35-.32A7,7,0,0,1,5.28,1.55l.22-.09v0a.5.5,0,0,0,1,0,.47.47,0,0,0-.11-.31A6.53,6.53,0,0,1,8,1a.5.5,0,1,0,.52.5A.5.5,0,0,0,8,1a6.53,6.53,0,0,1,1.59.19.47.47,0,0,0-.11.31.5.5,0,0,0,1,0v0l.22.09a7,7,0,0,1,1.81,1.11.5.5,0,0,0,.35.33l.07.06a6.9,6.9,0,0,1,1.5,2.23,5.84,5.84,0,0,1,.28.8.5.5,0,0,0,.2.91c0,.17,0,.34.05.51a.5.5,0,0,0,0,1c0,.17,0,.34-.05.5a.51.51,0,0,0-.43.5.49.49,0,0,0,.23.42,5.84,5.84,0,0,1-.28.8A6.9,6.9,0,0,1,13,13Z"/></svg>
