<?xml version="1.0" standalone="no"?>
<!DOCTYPE svg PUBLIC "-//W3C//DTD SVG 20010904//EN"
 "http://www.w3.org/TR/2001/REC-SVG-20010904/DTD/svg10.dtd">
<svg version="1.0" xmlns="http://www.w3.org/2000/svg"
 width="512.000000pt" height="512.000000pt" viewBox="0 0 512.000000 512.000000"
 preserveAspectRatio="xMidYMid meet">
<g transform="translate(0.000000,512.000000) scale(0.100000,-0.100000)"
fill="#000000" stroke="none">
<path d="M2325 5109 c-976 -103 -1778 -839 -1964 -1801 -235 -1219 558 -2392
1776 -2628 59 -11 143 -24 186 -27 l77 -6 0 -163 0 -164 -1200 0 -1200 0 0
-160 0 -160 2560 0 2560 0 0 160 0 160 -1200 0 -1200 0 0 164 0 163 78 6 c42
3 126 16 185 27 1056 204 1817 1126 1817 2200 0 1245 -1015 2251 -2259 2239
-75 -1 -172 -5 -216 -10z m82 -351 c3 -17 23 -48 43 -68 41 -41 88 -55 146
-44 46 8 109 69 117 113 l7 33 62 -7 c35 -4 107 -15 162 -26 93 -19 101 -23
141 -63 48 -50 98 -64 160 -47 33 9 46 6 102 -19 l65 -30 -23 -32 c-30 -42
-33 -129 -5 -171 34 -50 75 -72 137 -72 45 0 63 5 91 27 19 15 42 41 50 58
l15 31 72 -56 c69 -55 80 -75 40 -75 -10 0 -36 -17 -58 -39 -66 -66 -66 -156
-1 -221 65 -65 155 -65 221 1 22 22 39 48 39 58 0 40 20 29 75 -40 l56 -72
-31 -15 c-17 -8 -43 -31 -58 -50 -22 -28 -27 -46 -27 -91 0 -62 22 -103 72
-137 42 -28 129 -25 171 5 l32 23 30 -65 c25 -56 28 -69 19 -102 -17 -62 -3
-112 47 -160 40 -40 44 -49 63 -141 34 -166 46 -362 32 -527 -6 -78 -21 -186
-32 -241 -19 -92 -23 -101 -63 -141 -50 -48 -64 -98 -47 -160 9 -33 6 -46 -19
-102 l-30 -65 -32 23 c-45 32 -130 33 -174 2 -50 -36 -68 -71 -68 -134 -1 -45
4 -63 26 -91 15 -19 41 -42 58 -50 l31 -15 -56 -72 c-55 -69 -75 -80 -75 -40
0 10 -17 36 -39 58 -66 66 -156 66 -221 1 -65 -65 -65 -155 1 -221 22 -22 48
-39 58 -39 40 0 29 -20 -40 -75 l-72 -56 -15 31 c-8 17 -31 43 -50 58 -28 22
-46 27 -91 27 -62 0 -103 -22 -137 -72 -28 -42 -25 -129 5 -171 l23 -32 -65
-30 c-56 -25 -69 -28 -102 -19 -62 17 -112 3 -160 -47 -40 -40 -48 -44 -141
-63 -55 -11 -127 -22 -162 -26 l-62 -7 -7 33 c-3 18 -23 49 -43 69 -65 65
-155 65 -220 0 -20 -20 -40 -51 -43 -69 l-7 -33 -62 7 c-35 4 -107 15 -162 26
-93 19 -101 23 -141 63 -48 50 -98 64 -160 47 -33 -9 -46 -6 -102 19 l-65 30
23 32 c30 42 33 129 5 171 -34 50 -75 72 -137 72 -45 0 -63 -5 -91 -27 -19
-15 -42 -41 -50 -58 l-15 -31 -72 56 c-69 55 -80 75 -40 75 10 0 36 17 58 39
66 66 66 156 1 221 -65 65 -155 65 -221 -1 -22 -22 -39 -48 -39 -58 0 -40 -20
-29 -75 40 l-56 72 31 15 c17 8 43 31 58 50 22 28 27 46 26 91 0 63 -18 98
-68 134 -44 31 -129 30 -174 -2 l-32 -23 -30 65 c-25 56 -28 69 -19 102 17 62
3 112 -47 160 -40 40 -44 49 -63 141 -11 55 -26 163 -32 242 -14 164 -2 360
32 526 19 92 23 101 63 141 50 48 64 98 47 160 -9 33 -6 46 19 102 l30 65 32
-23 c45 -32 130 -33 174 -2 50 36 68 71 68 134 1 45 -4 63 -26 91 -15 19 -41
42 -58 50 l-31 15 56 72 c55 69 75 80 75 40 0 -10 17 -36 39 -58 66 -66 156
-66 221 -1 65 65 65 155 -1 221 -22 22 -48 39 -58 39 -40 0 -29 20 40 75 l72
56 15 -31 c8 -17 31 -43 50 -58 28 -22 46 -27 91 -27 62 0 103 22 137 72 28
42 25 129 -5 171 l-23 32 65 30 c56 25 69 28 102 19 62 -17 112 -3 160 47 40
40 48 44 141 63 98 20 142 26 197 29 23 2 28 -3 34 -30z"/>
<path d="M2192 4633 c-13 -3 -41 -22 -61 -42 -42 -42 -56 -88 -45 -147 9 -49
69 -109 118 -118 58 -11 105 3 146 44 65 65 65 155 0 220 -44 44 -88 56 -158
43z"/>
<path d="M2832 4633 c-13 -3 -41 -22 -61 -42 -66 -66 -66 -156 -1 -221 41 -41
88 -55 146 -44 23 4 51 21 74 44 65 65 65 155 0 220 -44 44 -88 56 -158 43z"/>
<path d="M1872 4313 c-13 -3 -41 -22 -61 -42 -42 -42 -56 -88 -45 -147 9 -49
69 -109 118 -118 58 -11 105 3 146 44 65 65 65 155 0 220 -44 44 -88 56 -158
43z"/>
<path d="M2512 4313 c-13 -3 -41 -22 -61 -42 -42 -42 -56 -88 -45 -147 9 -49
69 -109 118 -118 58 -11 105 3 146 44 65 65 65 155 0 220 -44 44 -88 56 -158
43z"/>
<path d="M3152 4313 c-13 -3 -41 -22 -61 -42 -66 -66 -66 -156 -1 -221 23 -23
51 -40 74 -44 58 -11 105 3 146 44 65 65 65 155 0 220 -44 44 -88 56 -158 43z"/>
<path d="M3155 3730 c-372 -32 -564 -213 -542 -511 11 -140 69 -245 176 -317
94 -62 194 -94 551 -176 226 -52 310 -116 310 -236 0 -65 -18 -108 -64 -147
-59 -53 -128 -68 -301 -67 -131 0 -157 3 -206 22 -92 37 -133 72 -170 149 -18
37 -34 70 -35 71 -2 4 -336 -49 -342 -54 -2 -1 8 -34 21 -73 88 -253 298 -375
667 -388 302 -11 514 44 644 166 94 90 136 194 136 341 0 141 -36 237 -118
319 -92 91 -193 129 -603 226 -240 57 -318 111 -319 223 0 82 36 133 125 174
44 20 66 23 185 23 121 0 140 -2 188 -24 62 -28 123 -92 142 -150 12 -39 15
-41 44 -36 17 3 93 14 169 24 76 11 140 21 143 23 2 3 -3 29 -12 59 -52 176
-169 286 -354 333 -60 14 -276 38 -325 34 -11 0 -60 -4 -110 -8z"/>
<path d="M1610 3570 l0 -140 165 0 166 0 -3 -497 -3 -498 -24 -48 c-30 -62
-81 -96 -152 -104 -115 -11 -197 40 -237 150 -12 32 -22 64 -22 73 0 8 -7 17
-15 20 -18 7 -326 -35 -338 -46 -14 -12 20 -128 60 -210 90 -184 257 -270 521
-270 281 1 467 120 544 349 22 65 23 76 26 714 l3 647 -346 0 -345 0 0 -140z"/>
<path d="M1872 1753 c-13 -3 -41 -22 -61 -42 -42 -42 -56 -88 -45 -147 9 -49
69 -109 118 -118 58 -11 105 3 146 44 65 65 65 155 0 220 -44 44 -88 56 -158
43z"/>
<path d="M2512 1753 c-13 -3 -41 -22 -61 -42 -42 -42 -56 -88 -45 -147 9 -49
69 -109 118 -118 58 -11 105 3 146 44 65 65 65 155 0 220 -44 44 -88 56 -158
43z"/>
<path d="M3152 1753 c-13 -3 -41 -22 -61 -42 -42 -42 -56 -88 -45 -147 9 -49
69 -109 118 -118 58 -11 105 3 146 44 65 65 65 155 0 220 -44 44 -88 56 -158
43z"/>
<path d="M2192 1433 c-13 -3 -41 -22 -61 -42 -42 -42 -56 -88 -45 -147 9 -49
69 -109 118 -118 58 -11 105 3 146 44 65 65 65 155 0 220 -44 44 -88 56 -158
43z"/>
<path d="M2832 1433 c-13 -3 -41 -22 -61 -42 -42 -42 -56 -88 -45 -147 9 -49
69 -109 118 -118 58 -11 105 3 146 44 65 65 65 155 0 220 -44 44 -88 56 -158
43z"/>
</g>
</svg>
