<?xml version="1.0" standalone="no"?>
<!DOCTYPE svg PUBLIC "-//W3C//DTD SVG 20010904//EN"
 "http://www.w3.org/TR/2001/REC-SVG-20010904/DTD/svg10.dtd">
<svg version="1.0" xmlns="http://www.w3.org/2000/svg"
 width="700.000000pt" height="700.000000pt" viewBox="0 0 700.000000 700.000000"
 preserveAspectRatio="xMidYMid meet">
<metadata>
Created by potrace 1.14, written by Peter Selinger 2001-2017
</metadata>
<g transform="translate(0.000000,700.000000) scale(0.100000,-0.100000)"
fill="#000000" stroke="none">
<path d="M3280 6994 c-19 -2 -84 -9 -145 -14 -635 -62 -1266 -317 -1795 -726
-148 -114 -480 -446 -594 -594 -411 -530 -654 -1132 -728 -1795 -17 -154 -17
-585 0 -730 99 -837 444 -1551 1029 -2126 562 -553 1251 -885 2048 -986 195
-24 615 -24 810 0 1004 127 1870 641 2452 1457 335 471 546 1022 620 1620 24
201 24 610 -1 805 -104 822 -448 1522 -1028 2091 -216 212 -400 355 -652 507
-418 252 -886 412 -1386 473 -117 15 -553 27 -630 18z m146 -449 c-80 -28
-137 -111 -137 -200 0 -199 238 -290 369 -140 43 48 52 74 52 141 0 90 -55
170 -136 199 l-39 14 65 0 c130 1 552 -56 590 -79 7 -4 4 -18 -7 -41 -12 -22
-18 -57 -18 -100 0 -55 5 -72 28 -107 54 -82 150 -118 245 -92 78 21 152 117
152 199 0 20 1 21 43 5 23 -9 123 -56 222 -104 267 -130 590 -352 651 -446 15
-23 46 -53 68 -65 52 -30 221 -198 310 -309 109 -136 255 -363 339 -526 42
-84 77 -155 77 -158 0 -4 -15 4 -33 18 -79 60 -151 70 -233 32 -191 -89 -146
-378 62 -402 129 -16 226 65 243 200 l6 50 50 -146 50 -147 -32 -33 c-111
-114 -68 -304 79 -354 37 -12 42 -28 53 -160 l7 -81 -39 -6 c-22 -4 -58 -20
-80 -36 -144 -104 -90 -350 83 -378 l37 -6 -7 -81 c-11 -131 -17 -148 -54
-160 -147 -50 -190 -240 -79 -354 l32 -33 -50 -147 -50 -147 -6 50 c-9 65 -21
93 -55 134 -81 96 -241 93 -322 -5 -59 -71 -67 -151 -24 -235 67 -134 241
-157 345 -46 26 28 27 29 18 5 -18 -48 -120 -246 -172 -333 -159 -270 -421
-585 -545 -654 -36 -21 -61 -45 -79 -75 -65 -111 -469 -376 -778 -510 -70 -31
-130 -56 -132 -56 -3 0 -5 10 -5 21 0 73 -57 159 -124 190 -179 81 -366 -102
-286 -280 11 -24 19 -46 17 -48 -9 -8 -218 -44 -337 -58 -68 -8 -163 -15 -210
-15 -83 0 -84 0 -55 16 75 39 115 105 115 189 0 66 -16 109 -56 149 -108 108
-293 75 -351 -63 -43 -100 11 -242 107 -280 21 -8 14 -10 -38 -10 -111 -1
-357 31 -504 65 l-66 16 19 41 c62 138 -42 296 -196 297 -98 0 -195 -78 -210
-170 -6 -38 -9 -41 -32 -35 -36 9 -213 92 -328 154 -193 103 -430 269 -555
387 -36 34 -100 95 -144 135 -207 195 -420 488 -566 778 l-60 122 42 -23 c100
-52 229 -17 284 77 86 147 -13 325 -181 325 -97 0 -181 -65 -208 -160 l-13
-45 -42 129 -43 129 25 26 c99 104 57 297 -76 343 -29 10 -33 23 -43 123 -3
33 -8 74 -11 91 -4 29 -2 32 28 38 54 11 105 54 134 113 23 45 26 63 21 112
-8 96 -70 170 -157 187 -31 7 -32 8 -26 48 3 23 8 74 12 114 l7 73 43 21 c132
62 166 237 66 341 l-26 28 44 132 43 132 13 -48 c42 -165 239 -222 358 -104
70 71 84 158 39 248 -35 68 -99 110 -176 117 -43 3 -62 -2 -109 -25 l-57 -29
15 35 c34 82 141 274 217 391 139 212 377 494 448 531 20 10 62 47 94 83 112
128 375 310 640 443 92 47 260 123 270 123 1 0 5 -22 9 -49 22 -169 238 -240
360 -118 66 67 83 154 45 236 -24 53 -24 53 85 75 160 31 346 52 481 54 79 1
80 1 41 -13z"/>
<path d="M2118 6110 c-98 -29 -167 -155 -139 -254 53 -194 314 -222 400 -43
82 169 -80 352 -261 297z"/>
<path d="M2975 6102 c-187 -90 -157 -362 45 -403 74 -16 129 0 186 53 52 48
80 125 69 186 -10 55 -51 119 -95 148 -54 36 -148 43 -205 16z"/>
<path d="M3868 6110 c-98 -29 -167 -155 -139 -254 53 -194 314 -222 400 -43
82 169 -80 352 -261 297z"/>
<path d="M4725 6102 c-187 -90 -157 -362 45 -403 74 -16 129 0 186 53 52 48
80 125 69 186 -10 55 -51 119 -95 148 -54 36 -148 43 -205 16z"/>
<path d="M1649 5657 c-68 -36 -103 -93 -107 -176 -4 -72 9 -112 52 -159 58
-65 173 -85 252 -44 82 42 119 113 112 213 -8 112 -93 189 -208 189 -40 0 -70
-7 -101 -23z"/>
<path d="M2535 5663 c-133 -70 -165 -237 -66 -341 80 -83 210 -89 294 -13 117
105 95 280 -44 352 -47 24 -141 25 -184 2z"/>
<path d="M3399 5657 c-68 -36 -103 -93 -107 -176 -4 -72 9 -112 52 -159 58
-65 173 -85 252 -44 82 42 119 113 112 213 -8 112 -93 189 -208 189 -40 0 -70
-7 -101 -23z"/>
<path d="M4285 5663 c-133 -70 -165 -237 -66 -341 80 -83 210 -89 294 -13 117
105 95 280 -44 352 -47 24 -141 25 -184 2z"/>
<path d="M5149 5657 c-68 -36 -103 -93 -107 -176 -4 -72 9 -112 52 -159 58
-65 173 -85 252 -44 82 42 119 113 112 213 -8 112 -93 189 -208 189 -40 0 -70
-7 -101 -23z"/>
<path d="M1261 5240 c-161 -38 -216 -249 -94 -361 50 -47 90 -62 158 -57 101
6 169 63 196 163 28 101 -49 227 -153 253 -52 13 -58 13 -107 2z"/>
<path d="M5628 5238 c-21 -5 -58 -28 -83 -50 -147 -129 -55 -367 143 -368 127
0 221 105 210 236 -11 127 -144 217 -270 182z"/>
<path d="M2638 3853 l-3 -858 -23 -69 c-18 -52 -35 -80 -70 -115 -56 -56 -108
-74 -209 -73 -158 1 -251 87 -301 277 -13 53 -20 65 -37 65 -22 0 -458 -62
-463 -66 -8 -5 41 -179 68 -244 123 -298 376 -433 784 -417 252 9 394 64 536
207 97 97 145 181 182 322 22 82 22 95 25 949 l4 866 -158 6 c-87 4 -197 7
-245 7 l-87 0 -3 -857z"/>
<path d="M4205 4666 c-306 -50 -498 -167 -589 -360 -44 -91 -56 -153 -56 -279
0 -184 48 -309 163 -422 118 -116 274 -181 622 -260 388 -88 479 -118 562
-189 56 -49 83 -107 83 -182 0 -86 -16 -131 -66 -184 -83 -89 -205 -123 -434
-123 -124 1 -170 5 -232 21 -153 41 -244 110 -299 225 -16 34 -29 67 -29 74 0
6 -5 15 -10 18 -10 6 -459 -63 -469 -72 -9 -7 42 -149 78 -218 71 -138 227
-271 389 -333 242 -93 651 -115 950 -51 394 85 602 314 602 664 0 179 -55 328
-158 434 -130 132 -274 186 -822 311 -214 48 -311 85 -375 142 -56 49 -79 101
-78 181 2 123 66 201 196 243 66 21 308 30 392 15 82 -15 175 -63 220 -112 32
-36 69 -102 88 -160 4 -14 30 -12 236 16 127 17 233 34 237 38 10 10 -34 144
-72 219 -20 39 -62 98 -101 138 -84 90 -197 148 -358 186 -99 23 -135 26 -350
30 -167 2 -264 -1 -320 -10z"/>
<path d="M1209 2157 c-31 -16 -54 -40 -77 -78 -30 -49 -33 -60 -30 -120 3 -51
10 -75 31 -107 79 -120 253 -128 345 -16 89 108 48 275 -80 329 -56 23 -136
19 -189 -8z"/>
<path d="M5594 2162 c-89 -42 -137 -145 -114 -244 18 -73 86 -141 157 -157 98
-20 201 27 242 112 45 92 13 215 -71 273 -54 37 -152 45 -214 16z"/>
<path d="M1705 1741 c-70 -18 -118 -56 -150 -120 -28 -55 -18 -158 20 -212 84
-119 266 -119 350 0 40 56 48 157 17 217 -45 88 -148 138 -237 115z"/>
<path d="M2564 1736 c-123 -39 -188 -177 -135 -291 65 -141 255 -169 358 -52
101 115 46 298 -101 342 -59 18 -68 18 -122 1z"/>
<path d="M3455 1741 c-70 -18 -118 -56 -150 -120 -28 -55 -18 -158 20 -212 84
-119 266 -119 350 0 40 56 48 157 17 217 -45 88 -148 138 -237 115z"/>
<path d="M4314 1736 c-123 -39 -188 -177 -135 -291 65 -141 255 -169 358 -52
101 115 46 298 -101 342 -59 18 -68 18 -122 1z"/>
<path d="M5205 1741 c-70 -18 -118 -56 -150 -120 -28 -55 -18 -158 20 -212 84
-119 266 -119 350 0 40 56 48 157 17 217 -45 88 -148 138 -237 115z"/>
<path d="M2128 1300 c-110 -33 -178 -150 -149 -256 25 -92 97 -153 192 -162
123 -12 228 86 229 212 0 141 -138 246 -272 206z"/>
<path d="M2992 1297 c-86 -33 -142 -112 -142 -202 0 -163 162 -262 309 -189
150 75 156 291 11 373 -48 27 -132 35 -178 18z"/>
<path d="M3878 1300 c-110 -33 -178 -150 -149 -256 25 -92 97 -153 192 -162
123 -12 228 86 229 212 0 141 -138 246 -272 206z"/>
<path d="M4742 1297 c-86 -33 -142 -112 -142 -202 0 -163 162 -262 309 -189
150 75 156 291 11 373 -48 27 -132 35 -178 18z"/>
</g>
</svg>
